<svg width="30" height="30" viewBox="0 0 30 30" fill="none" xmlns="http://www.w3.org/2000/svg">
<path d="M14.8609 0C6.80743 0 0.278809 6.52862 0.278809 14.5821C0.278809 22.6356 6.80743 29.1642 14.8609 29.1642C22.9144 29.1642 29.443 22.6356 29.443 14.5821C29.443 6.52862 22.9148 0 14.8609 0ZM23.4101 17.9749C23.4101 20.8067 21.1059 23.1104 18.2741 23.1104H11.4477C8.61588 23.1104 6.31215 20.8067 6.31215 17.9749V11.1485C6.31215 8.31665 8.61588 6.01293 11.4477 6.01293H18.2741C21.1059 6.01293 23.4101 8.31665 23.4101 11.1485V17.9749Z" fill="#010101"/>
<path d="M18.2741 7.6217H11.4477C9.50253 7.6217 7.92041 9.20382 7.92041 11.149V17.9754C7.92041 19.9205 9.50253 21.5026 11.4477 21.5026H18.2741C20.2192 21.5026 21.8013 19.9205 21.8013 17.9754V11.149C21.8013 9.20382 20.2192 7.6217 18.2741 7.6217ZM14.9314 18.7724C12.6095 18.7724 10.7207 16.8836 10.7207 14.5617C10.7207 12.2398 12.6095 10.351 14.9314 10.351C17.2533 10.351 19.1421 12.2398 19.1421 14.5617C19.1421 16.8836 17.2533 18.7724 14.9314 18.7724ZM19.3875 11.0704C18.8341 11.0704 18.385 10.6217 18.385 10.0679C18.385 9.51403 18.8337 9.06536 19.3875 9.06536C19.9414 9.06536 20.3901 9.51403 20.3901 10.0679C20.3901 10.6217 19.9414 11.0704 19.3875 11.0704Z" fill="#010101"/>
<path d="M14.9313 11.8647C13.4441 11.8647 12.2339 13.0745 12.2339 14.5621C12.2339 16.0497 13.4437 17.259 14.9313 17.259C16.4188 17.259 17.6282 16.0493 17.6282 14.5621C17.6282 13.075 16.4184 11.8647 14.9313 11.8647Z" fill="#010101"/>
</svg>
