<svg width="148" height="44" viewBox="0 0 168 44" fill="none" xmlns="http://www.w3.org/2000/svg">
<path d="M113.381 17.6997H112.946V43.3818H113.381V17.6997Z" fill="#010101"/>
<path d="M19.1224 28.8055C18.8848 28.5147 18.7504 28.3834 18.7504 28.2771C18.7504 28.1708 18.8285 28.0145 18.9098 27.8269L19.704 26.0791C19.9416 25.5507 20.1542 25.1005 20.1542 24.5439C20.1542 24.1468 19.9947 23.7498 19.5977 23.409L18.4627 22.4303C18.3689 22.3522 18.347 22.2177 18.4096 22.1114L18.8316 21.1609C18.866 21.0953 18.8442 21.014 18.7785 20.9765C17.4809 20.1041 16.0021 19.5789 14.5982 19.1786C13.2006 18.8097 11.3184 18.2782 10.3929 17.5653C9.46116 18.2782 7.58519 18.7816 6.18759 19.1786C4.78999 19.5757 3.30484 20.1041 2.00729 20.9765C1.94163 21.014 1.91975 21.0953 1.95414 21.1609L2.37623 22.1114C2.43877 22.2146 2.41688 22.3522 2.32308 22.4303L1.18812 23.409C0.791035 23.7529 0.631578 24.15 0.631578 24.5439C0.631578 25.1005 0.844188 25.5476 1.08181 26.0791L1.87597 27.8269C1.95414 28.0114 2.03543 28.1708 2.03543 28.2771C2.03543 28.3834 1.90411 28.5147 1.66649 28.8055C0.475247 30.2875 0 31.5038 0 33.1171C0 35.3652 1.10995 37.0848 2.37936 38.3824C3.67378 39.7049 5.47472 40.5772 7.11307 41.3714C8.198 41.8998 9.33609 42.4282 10.3929 43.2755C11.4497 42.4282 12.5878 41.8998 13.6727 41.3714C15.3111 40.5772 17.137 39.7049 18.4064 38.3824C19.6696 37.0848 20.7795 35.3652 20.7795 33.1171C20.7795 31.5038 20.3074 30.2875 19.1193 28.8086L19.1224 28.8055ZM17.8749 37.904C16.7118 39.0952 14.9922 39.9394 13.3507 40.7336C12.2657 41.262 11.2089 41.7904 10.3898 42.4251C9.57059 41.7904 8.51067 41.262 7.42885 40.7336C5.7905 39.9394 4.07086 39.0921 2.90463 37.904C1.42261 36.397 0.709743 34.8618 0.709743 33.1171C0.709743 31.6351 1.29129 30.3938 2.61386 28.7273C2.72016 28.596 2.82647 28.4647 2.82647 28.3553C2.82647 28.2458 2.72016 28.0395 2.66701 27.9301L1.74153 25.9196C1.52892 25.4694 1.31943 25.0473 1.31943 24.5971C1.31943 24.225 1.55706 23.9624 1.87597 23.6966L3.19853 22.5054C3.24543 22.4553 3.25794 22.3803 3.22355 22.3209L2.80145 21.4486C2.7483 21.3423 2.7483 21.2641 2.82647 21.2109C4.12401 20.3386 5.20895 20.076 6.76914 19.6508C8.25116 19.2537 9.57372 18.9098 10.3929 18.3814C11.2121 18.9098 12.5346 19.2537 14.0166 19.6508C15.5768 20.076 16.6368 20.3918 17.9562 21.2109C18.0344 21.2641 18.0344 21.3423 17.9843 21.4486L17.5591 22.3209C17.5278 22.3834 17.5403 22.4553 17.5841 22.5054L18.9067 23.6966C19.2225 23.9592 19.4632 24.225 19.4632 24.5971C19.4632 25.0473 19.2506 25.4694 19.038 25.9196L18.1125 27.9301C18.0594 28.0364 17.9531 28.249 17.9531 28.3553C17.9531 28.4616 18.0594 28.5929 18.1657 28.7273C19.5945 30.3157 20.0698 31.6351 20.0698 33.1171C20.0698 34.8618 19.3569 36.397 17.8749 37.904ZM18.5628 33.3547C18.4221 33.3485 18.2907 33.4204 18.2188 33.5392C18.0062 33.064 17.7967 32.6137 16.8681 31.7664C16.9869 31.8039 17.112 31.8227 17.2402 31.8196C17.531 31.8196 17.853 31.7414 18.0344 31.5569C18.0844 31.7352 18.247 31.854 18.4314 31.8477C18.7222 31.8477 18.8285 31.6632 18.8285 31.4506C18.8285 31.3725 18.8035 31.2912 18.7222 31.2912C18.5628 31.2912 18.6972 31.607 18.4314 31.607C18.3283 31.607 18.2438 31.5194 18.2438 31.4162C18.2438 31.41 18.2438 31.4037 18.2438 31.3944C18.2438 31.263 18.322 31.1036 18.322 30.9191C18.3376 30.5502 18.0969 30.2219 17.7405 30.1249C17.5747 30.0937 17.4528 29.9499 17.4497 29.781C17.4497 29.5684 17.6091 29.5434 17.7123 29.5434C17.8155 29.5434 17.8968 29.5684 17.8968 29.4902C17.8968 29.4121 17.8186 29.3589 17.6592 29.3589C17.4747 29.3589 17.2089 29.4902 17.2089 29.781C17.2058 29.8998 17.2527 30.0155 17.3402 30.0999C17.0807 30.1437 16.8931 30.3657 16.89 30.6283C16.89 30.8128 16.9432 31.0004 17.0745 31.0004C17.2339 31.0004 17.1026 30.8691 17.1026 30.6565C17.1026 30.4188 17.3152 30.3125 17.5247 30.3125C17.8155 30.3125 18.0813 30.5752 18.0813 30.9254C18.0813 31.3224 17.7623 31.5882 17.2621 31.5882C16.8587 31.607 16.471 31.4413 16.2053 31.138C15.6487 30.5252 15.333 30.003 15.333 29.0494C15.333 27.8331 16.2053 26.7763 17.4747 26.4293C17.7561 26.348 17.9531 26.0885 17.9499 25.7946C17.9499 25.5319 17.7905 25.3193 17.5278 25.3193C17.4215 25.3193 17.3434 25.3443 17.3434 25.4256C17.3434 25.5069 17.4215 25.5038 17.4747 25.5038C17.6185 25.5194 17.7248 25.6508 17.7123 25.7946C17.7123 26.0291 17.5216 26.2198 17.2871 26.2198C17.2777 26.2198 17.2683 26.2198 17.2621 26.2198C16.9713 26.2198 16.7868 26.0072 16.7868 25.7164C16.7868 25.1599 17.4497 24.7909 17.9499 24.5533C17.4997 24.3407 17.3371 24.2625 16.9994 23.9968C16.9275 23.928 16.8869 23.8342 16.8931 23.7341C16.8931 23.6028 16.9713 23.4965 17.0776 23.4965C17.1464 23.4934 17.2058 23.5465 17.2089 23.6153C17.2089 23.6216 17.2089 23.6247 17.2089 23.631C17.2089 23.7091 17.1558 23.7091 17.1558 23.7623C17.1495 23.7998 17.1777 23.8373 17.2152 23.8404C17.2214 23.8404 17.2277 23.8404 17.2371 23.8404C17.2902 23.8404 17.4215 23.7873 17.4215 23.5778C17.4247 23.4058 17.2871 23.262 17.1151 23.2589C17.1026 23.2589 17.0901 23.2589 17.0776 23.2589C16.8431 23.2589 16.6524 23.4496 16.6555 23.6841C16.6555 23.6904 16.6555 23.6997 16.6555 23.706C16.4492 23.534 16.2553 23.3496 16.074 23.1526L15.2267 22.2271C14.989 21.9645 15.1203 21.4611 15.4643 21.4611C15.5987 21.4517 15.7144 21.5518 15.7269 21.6862C15.7269 21.6893 15.7269 21.6956 15.7269 21.6987C15.7269 21.9363 15.4893 21.83 15.4893 21.9613C15.483 22.0145 15.5237 22.0614 15.5768 22.0676C15.5831 22.0676 15.5893 22.0676 15.5956 22.0676C15.7988 22.0676 15.9645 21.9051 15.9677 21.7018C15.9677 21.6924 15.9677 21.6799 15.9677 21.6706C15.9552 21.4079 15.73 21.2078 15.4674 21.2203C15.1235 21.2203 14.8858 21.483 14.8858 21.855L14.6232 21.5643C13.4601 20.2948 12.5065 19.7383 11.581 19.7383C11.2809 19.7321 10.987 19.8165 10.7337 19.9759C10.6086 19.8259 10.4929 19.6664 10.3898 19.5007C10.2866 19.6664 10.1709 19.8259 10.0458 19.9759C9.79258 19.8165 9.49868 19.7321 9.19852 19.7383C8.27304 19.7383 7.31942 20.2948 6.15632 21.5643L5.89368 21.855C5.89368 21.483 5.65606 21.2203 5.31213 21.2203C5.04949 21.2047 4.82438 21.4048 4.80874 21.6674C4.79311 21.8707 4.94319 22.0458 5.14642 22.0645C5.1558 22.0645 5.16831 22.0645 5.17769 22.0645C5.23084 22.0708 5.27774 22.0301 5.28399 21.977C5.28399 21.9707 5.28399 21.9645 5.28399 21.9582C5.28399 21.8269 5.04637 21.9301 5.04637 21.6956C5.04637 21.5611 5.16205 21.4548 5.2965 21.458C5.29962 21.458 5.30588 21.458 5.309 21.458C5.65293 21.458 5.78425 21.9613 5.54663 22.224L4.70557 23.1432C4.52422 23.3433 4.33037 23.5278 4.12401 23.6966C4.13652 23.4621 3.9583 23.262 3.72381 23.2495C3.71443 23.2495 3.70817 23.2495 3.69879 23.2495C3.52683 23.2339 3.37363 23.3589 3.35799 23.5309C3.35799 23.5434 3.35799 23.5559 3.35799 23.5684C3.35799 23.781 3.48931 23.8311 3.54246 23.8311C3.57998 23.8373 3.6175 23.8092 3.62063 23.7717C3.62063 23.7654 3.62063 23.7591 3.62063 23.7529C3.62063 23.6997 3.56748 23.6997 3.56748 23.6216C3.56435 23.5528 3.6175 23.4934 3.68629 23.4903C3.68941 23.4903 3.69567 23.4903 3.69879 23.4903C3.8051 23.4903 3.88326 23.5966 3.88326 23.7279C3.88952 23.8279 3.84887 23.9217 3.77696 23.9905C3.46117 24.3094 3.27357 24.3344 2.82334 24.5471C3.32673 24.7847 3.98644 25.1599 3.98644 25.7102C3.98644 26.0009 3.80197 26.2135 3.5112 26.2135C3.2767 26.226 3.0766 26.051 3.06409 25.8165C3.06409 25.8071 3.06409 25.8008 3.06409 25.7914C3.05158 25.6476 3.15789 25.5163 3.30171 25.5007C3.35487 25.5007 3.43303 25.5007 3.43303 25.4225C3.43303 25.3443 3.35487 25.3162 3.24856 25.3162C2.98592 25.3162 2.82334 25.5288 2.82334 25.7914C2.82334 26.0854 3.01719 26.3449 3.29859 26.4262C4.568 26.7982 5.44032 27.8238 5.44032 29.0463C5.44032 29.9968 5.09639 30.5001 4.568 31.1348C4.30223 31.4381 3.9114 31.6038 3.5112 31.5851C3.00781 31.5851 2.69202 31.3224 2.69202 30.9222C2.69202 30.5783 2.95466 30.3094 3.24856 30.3094C3.46117 30.3094 3.67065 30.4157 3.67065 30.6533C3.67065 30.866 3.53934 30.9973 3.69567 30.9973C3.82699 30.9973 3.88014 30.8128 3.88014 30.6252C3.88014 30.3626 3.68941 30.1406 3.4299 30.0968C3.51745 30.0155 3.56435 29.8998 3.56122 29.7779C3.56122 29.4871 3.29859 29.3558 3.11099 29.3558C2.95153 29.3558 2.87337 29.409 2.87337 29.4871C2.87337 29.5653 2.95153 29.5403 3.05784 29.5403C3.16414 29.5403 3.32047 29.5653 3.32047 29.7779C3.31422 29.9467 3.19541 30.0906 3.0297 30.1218C2.67326 30.2187 2.43251 30.547 2.44815 30.916C2.44815 31.1005 2.52631 31.2599 2.52631 31.3912C2.53882 31.4944 2.4669 31.5882 2.36373 31.6007C2.35747 31.6007 2.34809 31.6007 2.34184 31.6007C2.0792 31.6007 2.21052 31.2849 2.05106 31.2849C1.9729 31.2849 1.94476 31.3631 1.94476 31.4444C1.94476 31.657 2.05106 31.8415 2.34184 31.8415C2.52631 31.8477 2.6889 31.7258 2.73892 31.5507C2.92339 31.7352 3.24231 31.8133 3.53308 31.8133C3.65815 31.8133 3.78321 31.7977 3.90202 31.7602C2.97654 32.6075 2.76706 33.0577 2.55445 33.533C2.48254 33.4142 2.35122 33.3422 2.21052 33.3485C1.94789 33.3485 1.81344 33.508 1.81344 33.7456C1.81344 33.7987 1.81344 33.9582 1.94476 33.9582C2.05106 33.9582 1.99791 33.8519 1.99791 33.7737C1.99791 33.6705 2.08546 33.5861 2.18864 33.5861C2.19489 33.5861 2.20114 33.5861 2.21052 33.5861C2.42313 33.5861 2.47316 33.7706 2.42313 34.0614C2.40125 34.2021 2.39187 34.3428 2.39812 34.4835C2.39812 35.7279 3.3236 36.6252 4.53986 36.6252C4.71495 36.6221 4.89004 36.6033 5.06513 36.572L5.4372 37.1286C5.17456 37.2036 4.99322 37.4381 4.98696 37.7101C4.98071 38.0416 5.24022 38.3136 5.57164 38.323C5.58102 38.323 5.5904 38.323 5.59665 38.323C5.80926 38.323 5.9656 38.2166 5.9656 38.1103C5.97185 38.0572 5.93433 38.0103 5.88118 38.004C5.87492 38.004 5.86867 38.004 5.86242 38.004C5.78425 38.004 5.78425 38.0822 5.59978 38.0822C5.39968 38.0885 5.23397 37.929 5.22771 37.7289C5.22771 37.7226 5.22771 37.7164 5.22771 37.7101C5.22771 37.4975 5.41218 37.3381 5.67795 37.3381C6.18133 37.3381 6.41895 37.9196 6.76288 38.5012L7.10681 39.0827C7.66335 40.0363 8.56069 40.5898 9.3017 40.5898C9.40801 40.5929 9.51431 40.5866 9.62062 40.5647C9.93641 40.8805 10.2553 41.4652 10.3866 41.7278C10.518 41.4652 10.8369 40.8805 11.1527 40.5647C11.2558 40.5866 11.3621 40.596 11.4685 40.5898C12.2095 40.5898 13.1099 40.0363 13.6633 39.0827L14.0073 38.5012C14.3512 37.9196 14.5888 37.3381 15.0922 37.3381C15.3548 37.3381 15.5424 37.4975 15.5424 37.7101C15.5487 37.9102 15.3892 38.0759 15.1891 38.0822C15.1829 38.0822 15.1766 38.0822 15.1704 38.0822C14.9859 38.0822 14.9859 38.004 14.9077 38.004C14.8546 37.9978 14.8077 38.0384 14.8014 38.0916C14.8014 38.0978 14.8014 38.1041 14.8014 38.1103C14.8014 38.2166 14.9609 38.323 15.1735 38.323C15.5049 38.3292 15.7769 38.0697 15.7863 37.7383C15.7863 37.7289 15.7863 37.7195 15.7863 37.7133C15.7801 37.4412 15.5987 37.2067 15.3361 37.1317L15.705 36.5752C15.8801 36.6064 16.0583 36.6252 16.2334 36.6283C17.4497 36.6283 18.3752 35.7279 18.3752 34.4866C18.3783 34.3459 18.372 34.2021 18.347 34.0645C18.2939 33.7737 18.347 33.5892 18.5596 33.5892C18.6628 33.5767 18.7566 33.6487 18.7691 33.7518C18.7691 33.7581 18.7691 33.7675 18.7691 33.7737C18.7691 33.8519 18.716 33.9582 18.8223 33.9582C18.9536 33.9582 18.9536 33.7987 18.9536 33.7456C18.9536 33.5142 18.8191 33.3579 18.5534 33.3579L18.5628 33.3547ZM10.6555 21.4705C10.4867 21.5455 10.2897 21.5455 10.1209 21.4705C10.2397 21.3767 10.3335 21.2547 10.3898 21.114C10.446 21.2578 10.5367 21.3798 10.6587 21.4736L10.6555 21.4705ZM10.3898 41.312C10.2397 41.0181 10.0521 40.743 9.83635 40.4928C10.0771 40.399 10.2741 40.2208 10.3898 39.9894C10.5055 40.2208 10.7056 40.399 10.9463 40.4928C10.7274 40.743 10.543 41.0212 10.3898 41.3183V41.312ZM16.2365 36.3938C15.3111 36.3938 14.7014 35.8654 14.7014 35.0713C14.7014 34.4084 15.1516 33.88 15.68 33.88C15.8926 33.88 16.0771 33.9582 16.0771 34.1708C16.0771 34.3021 16.0239 34.4084 16.1553 34.4084C16.2334 34.4084 16.3147 34.3303 16.3147 34.1176C16.3147 33.855 16.0771 33.6424 15.7332 33.6424H15.655C15.6894 33.5674 15.7081 33.4861 15.7081 33.4048C15.7144 33.2047 15.5549 33.039 15.358 33.0358C15.3517 33.0358 15.3455 33.0358 15.3392 33.0358C15.1547 33.0358 14.9671 33.1421 14.9671 33.2735C14.9609 33.311 14.989 33.3485 15.0265 33.3516C15.0328 33.3516 15.0391 33.3516 15.0453 33.3516C15.1235 33.3516 15.1516 33.2735 15.2829 33.2735C15.3736 33.2641 15.458 33.3297 15.4674 33.4204C15.4674 33.4329 15.4674 33.4454 15.4674 33.4579C15.4674 33.6424 15.3079 33.7206 15.1766 33.8019C14.7264 34.0645 14.4544 34.5491 14.4638 35.0713C14.4638 35.8123 14.8858 36.2875 15.4955 36.5001L15.1047 37.1098C14.5763 37.1098 14.3105 37.5069 13.8353 38.3511C13.7884 38.126 13.5852 37.9696 13.3569 37.9822C13.0662 37.9822 12.8817 38.1948 12.8817 38.4855C12.8754 38.5512 12.9223 38.6106 12.988 38.6169C13.0568 38.62 13.1162 38.5668 13.1193 38.498C13.1193 38.4918 13.1193 38.4887 13.1193 38.4824C13.1099 38.348 13.21 38.2323 13.3413 38.2198C13.3475 38.2198 13.3507 38.2198 13.3569 38.2198C13.5414 38.2198 13.6196 38.3511 13.6196 38.5106C13.6258 38.6919 13.5695 38.867 13.4601 39.0139C12.9036 39.9144 12.1375 40.3646 11.4747 40.3646C10.8932 40.3646 10.5492 40.0207 10.5492 39.6768C10.5492 39.361 10.7337 39.0952 11.0526 39.0952C11.2652 39.0952 11.3965 39.2265 11.3965 39.411C11.3965 39.5705 11.2652 39.5705 11.2652 39.6486C11.2652 39.7018 11.3184 39.7268 11.3715 39.7268C11.531 39.7268 11.6342 39.5423 11.6342 39.3579C11.6342 39.0671 11.3965 38.8545 11.0526 38.8545C10.7681 38.8545 10.5086 39.0202 10.3898 39.2766C10.271 39.0171 10.0146 38.8514 9.73005 38.8545C9.38612 38.8545 9.1485 39.0671 9.1485 39.3579C9.1485 39.5423 9.2548 39.7268 9.41113 39.7268C9.46428 39.7268 9.51744 39.7018 9.51744 39.6486C9.51744 39.5705 9.38612 39.5705 9.38612 39.411C9.38612 39.2265 9.51744 39.0952 9.73005 39.0952C10.0458 39.0952 10.2334 39.3579 10.2334 39.6768C10.2334 40.0207 9.88951 40.3646 9.30795 40.3646C8.64824 40.3646 7.87909 39.9144 7.32568 39.0139C7.21624 38.8701 7.16309 38.6919 7.16622 38.5106C7.16622 38.3511 7.24438 38.2198 7.42885 38.2198C7.5633 38.2198 7.6696 38.3323 7.6696 38.4668C7.6696 38.473 7.6696 38.4762 7.6696 38.4824C7.66648 38.5512 7.7165 38.6106 7.78529 38.6137C7.79154 38.6137 7.79467 38.6137 7.80092 38.6137C7.86658 38.6075 7.91348 38.5481 7.90723 38.4824C7.90723 38.1916 7.72276 37.979 7.43198 37.979C7.20374 37.9696 7.00051 38.126 6.95673 38.348C6.48149 37.5007 6.21572 37.1067 5.68733 37.1067L5.29024 36.4939C5.90306 36.2813 6.32203 35.806 6.32203 35.065C6.33141 34.5429 6.05627 34.0582 5.60916 33.7956C5.47784 33.7174 5.31838 33.6361 5.31838 33.4517C5.309 33.361 5.37466 33.2766 5.46534 33.2672C5.47784 33.2672 5.49035 33.2672 5.50286 33.2672C5.63417 33.2672 5.66231 33.3454 5.74048 33.3454C5.778 33.3516 5.81552 33.3235 5.81864 33.286C5.81864 33.2797 5.81864 33.2735 5.81864 33.2672C5.81864 33.1359 5.63417 33.0296 5.44658 33.0296C5.24647 33.0233 5.08076 33.1828 5.07451 33.3829C5.07451 33.3891 5.07451 33.3954 5.07451 33.4016C5.07451 33.4829 5.09327 33.5674 5.12766 33.6393H5.04949C4.70557 33.6393 4.46794 33.8519 4.46794 34.1145C4.46794 34.3271 4.54611 34.4053 4.6274 34.4053C4.75872 34.4053 4.70557 34.299 4.70557 34.1677C4.70557 33.9551 4.89004 33.8769 5.10265 33.8769C5.63105 33.8769 6.08128 34.4022 6.08128 35.0681C6.08128 35.8623 5.46846 36.3907 4.54611 36.3907C3.46117 36.3907 2.642 35.5965 2.642 34.4866C2.642 33.3766 3.2767 32.6606 3.98957 32.0009L4.60239 31.4194C5.36841 30.7065 5.68733 29.9655 5.68733 29.04C5.68733 28.0364 5.07451 26.9233 3.80823 26.3699C4.07086 26.2917 4.23345 26.0259 4.23345 25.707C4.23345 25.4944 4.15528 25.3631 4.15528 25.2036C4.15528 24.8879 4.33975 24.7003 4.60551 24.7003C4.81812 24.694 4.99322 24.8597 5.0026 25.0692C5.01198 25.2224 4.89316 25.3537 4.73996 25.36C4.73058 25.36 4.7212 25.36 4.71182 25.36C4.63365 25.36 4.5805 25.36 4.5805 25.4381C4.5805 25.5163 4.65867 25.5444 4.76497 25.5444C5.0026 25.5538 5.20583 25.3819 5.24022 25.1474C5.2965 25.1818 5.35903 25.2005 5.42469 25.2005C5.59353 25.2068 5.73423 25.0755 5.74048 24.9066C5.74048 24.9004 5.74048 24.891 5.74048 24.8847C5.74048 24.8316 5.71547 24.7534 5.63417 24.7534C5.58102 24.7534 5.55601 24.8066 5.55601 24.8597C5.55913 24.9285 5.50911 24.9879 5.44032 24.991C5.43407 24.991 5.43094 24.991 5.42469 24.991C5.31526 24.9817 5.22459 24.9097 5.18707 24.8066C5.06825 24.5971 4.84626 24.4658 4.60551 24.4626C4.27722 24.4564 3.99582 24.694 3.9458 25.0192C3.76133 24.8347 3.5581 24.6752 3.33298 24.5439C3.54559 24.4126 3.73006 24.3063 3.9458 24.1468C4.28035 23.8967 4.59301 23.6122 4.8744 23.3027L6.32828 21.7143C7.59769 20.3167 8.41687 19.9666 9.21103 19.9666C9.89889 19.9666 10.2428 20.3105 10.2428 20.7076C10.2428 20.9983 10.1177 21.2141 9.92077 21.3204C9.80196 21.1953 9.72067 21.0359 9.6894 20.867C9.66439 20.7357 9.63625 20.7357 9.61124 20.7357C9.55808 20.7357 9.55808 20.7889 9.55808 20.842C9.55183 21.0359 9.60186 21.2266 9.70191 21.3923C9.67377 21.3954 9.6425 21.3985 9.61436 21.3985C9.35173 21.3985 9.19227 21.2672 9.19227 21.1078C9.19227 21.0577 9.2079 21.0108 9.24542 20.9765C9.29857 20.9233 9.27043 20.8983 9.24542 20.8983C9.13912 20.8983 9.03281 21.0296 9.03281 21.1891C9.03281 21.3735 9.19227 21.6393 9.64563 21.6393C9.73005 21.6393 9.81447 21.6268 9.89576 21.6018C10.2022 21.8269 10.6211 21.8269 10.9307 21.6018C11.012 21.6268 11.0964 21.6393 11.1808 21.6393C11.631 21.6393 11.7936 21.3767 11.7936 21.1891C11.7936 21.0296 11.6873 20.8983 11.581 20.8983C11.556 20.8983 11.5279 20.9233 11.581 20.9765C11.6185 21.0108 11.6373 21.0577 11.6342 21.1078C11.6342 21.2672 11.4747 21.3985 11.2089 21.3985C11.1808 21.3985 11.1495 21.3985 11.1214 21.3923C11.2214 21.2266 11.2683 21.0359 11.2652 20.842C11.2652 20.7889 11.2652 20.7357 11.2121 20.7357C11.1871 20.7357 11.1589 20.7357 11.1339 20.867C11.1026 21.039 11.0213 21.1953 10.9025 21.3204C10.7056 21.2141 10.5805 20.9983 10.5805 20.7076C10.5805 20.3105 10.9244 19.9666 11.6123 19.9666C12.4064 19.9666 13.2256 20.3105 14.495 21.7143L15.9395 23.3027C16.2147 23.6184 16.5242 23.903 16.865 24.15C17.0776 24.3094 17.2621 24.4126 17.4778 24.5471C17.2558 24.6784 17.0495 24.8378 16.865 25.0223C16.815 24.6971 16.5305 24.4626 16.2022 24.4658C15.9614 24.4689 15.7394 24.6002 15.6206 24.8097C15.5862 24.9129 15.4924 24.9848 15.3861 24.9973C15.3173 25.0004 15.2579 24.9473 15.2548 24.8785C15.2548 24.8722 15.2548 24.8691 15.2548 24.8628C15.2548 24.8097 15.2267 24.7565 15.1766 24.7565C15.0985 24.7565 15.0703 24.8347 15.0703 24.8879C15.0641 25.0567 15.1954 25.1974 15.3642 25.2036C15.3705 25.2036 15.3799 25.2036 15.3861 25.2036C15.4518 25.2036 15.5143 25.1849 15.5706 25.1505C15.605 25.385 15.8113 25.557 16.0458 25.5476C16.1521 25.5476 16.2303 25.5226 16.2303 25.4413C16.2303 25.36 16.1771 25.3631 16.099 25.3631C15.9552 25.3787 15.8238 25.2787 15.8082 25.1349C15.8082 25.113 15.8082 25.0942 15.8082 25.0723C15.8176 24.8597 15.9927 24.6971 16.2053 24.7034C16.4679 24.7034 16.6555 24.8879 16.6555 25.2068C16.6555 25.3662 16.5774 25.4975 16.5774 25.7102C16.5774 26.0259 16.7368 26.2917 16.9994 26.373C15.7269 26.9264 15.1235 28.0395 15.1235 29.0431C15.1235 29.9686 15.4393 30.7096 16.2084 31.4225L16.8212 32.004C17.5372 32.6669 18.1719 33.4017 18.1719 34.4897C18.1625 35.5997 17.3434 36.3938 16.2616 36.3938H16.2365Z" fill="#010101"/>
<path d="M13.0785 31.5194C12.9784 31.138 12.8096 30.7784 12.5782 30.4595C12.0592 29.7591 11.4558 29.5278 11.4308 29.5184C11.5746 29.4402 11.709 29.3496 11.8403 29.2495C12.2593 28.9306 12.5782 28.4929 12.7502 27.9926C13.0034 27.2797 13.0347 26.5075 12.844 25.779C12.4063 24.1469 11.2463 23.9061 11.2463 23.9061C11.2463 23.9061 9.89246 23.3683 8.96385 24.5471C8.95447 24.5314 8.44796 23.7529 7.55375 24.1625C6.77834 24.5877 7.22545 25.2631 7.41618 25.3787C7.41618 25.3787 7.66943 25.5476 7.81326 25.3787C7.91956 25.2537 7.807 25.1224 7.75385 25.0379C7.64129 24.8629 7.82576 24.669 8.08527 24.6721C8.31039 24.6721 8.76062 24.841 8.76062 25.4507V33.7175C8.76062 33.7862 8.69184 34.2271 8.31977 34.2177C7.9477 34.2083 7.81326 33.8206 8.02587 33.6049C8.01336 33.5705 7.98835 33.5392 7.96021 33.5173C7.92269 33.4986 7.34739 33.4798 7.4193 34.0864C7.49121 34.693 8.21034 34.9837 8.9107 34.6023C9.25776 35.212 9.91122 35.584 10.6116 35.5715C11.8341 35.5715 12.6001 34.546 12.6001 34.546C12.6001 34.546 13.5819 33.3485 13.0816 31.5163L13.0785 31.5194ZM9.4391 25.0286C9.4391 25.0286 9.70174 24.3376 10.6804 24.4126C11.659 24.4877 12.1937 25.2849 12.2187 26.0791C12.2468 26.8701 12.4563 28.6148 10.4427 29.312H9.4391V25.0286ZM12.2187 33.8081C11.956 34.4272 11.362 34.843 10.6897 34.8806C9.45473 34.9837 9.43597 33.5173 9.43597 33.5173V29.9405H9.47349C9.87057 29.8998 10.2739 29.9342 10.6585 30.0405C11.7716 30.3563 12.5657 31.36 12.5251 32.5137C12.5063 32.9608 12.4031 33.3985 12.2187 33.805V33.8081Z" fill="#010101"/>
<path d="M7.94805 33.0453C8.84226 33.7144 9.93971 34.0489 11.0528 33.9958C11.8094 33.9645 12.5411 33.7238 13.1633 33.2954C14.9704 32.0354 14.1638 30.397 14.1106 30.2501C14.1106 30.2501 13.6104 29.1151 12.3816 28.6899C12.3816 28.6899 11.4592 28.3804 9.99286 28.2741C8.5296 28.1678 7.9543 27.5393 8.17629 26.7733C8.40141 26.0073 9.5395 25.6571 10.2461 25.6133C11.2498 25.5539 12.2472 25.8259 13.082 26.3856C13.2289 26.5013 13.3634 26.6326 13.4853 26.7733C13.4853 26.7733 13.6854 27.0359 13.8136 26.9015C13.923 26.7858 13.7354 26.6201 13.7354 26.6201C13.5322 26.3731 13.4134 26.0729 13.3915 25.754C13.3727 25.5352 13.3665 25.3163 13.379 25.0974C13.3884 25.0099 13.404 24.9255 13.429 24.841C13.4509 24.766 13.4697 24.6597 13.3602 24.6441C13.2727 24.6284 13.2289 24.7316 13.2227 24.7472C13.0038 25.1099 12.5786 25.2913 12.1659 25.1975C10.9809 24.9411 10.2492 24.9536 10.2492 24.9536C10.2492 24.9536 8.8704 24.8535 7.9418 25.8478C7.52908 26.2793 7.34461 26.8827 7.44779 27.4737C7.66665 28.5836 8.81412 28.9901 9.99599 28.9807C10.465 28.9744 10.9308 29.0276 11.3873 29.1339C11.6437 29.1933 11.8938 29.2715 12.1346 29.3715C12.763 29.6185 13.2445 30.1407 13.4447 30.7847C13.6135 31.3757 13.551 32.1636 12.4785 32.8045C10.4962 33.9864 8.11064 32.8921 7.11324 30.5596C7.0726 30.4783 6.97567 30.4471 6.89751 30.4877C6.77244 30.5377 6.84123 30.7191 6.84123 30.7191C6.84123 30.7191 7.21329 31.3882 7.14138 31.9135C7.0851 32.2699 6.89438 32.5951 6.61298 32.8202C6.5098 32.914 6.38474 33.0265 6.48167 33.1235C6.57859 33.2204 6.6849 33.1672 6.83185 33.0359H6.8381C7.17265 32.7983 7.62288 32.8045 7.95118 33.0484L7.94805 33.0453Z" fill="#010101"/>
<path d="M10.249 25.0786V34.8181C10.2521 35.1714 10.1771 35.5184 10.0239 35.8373C9.85504 36.1781 9.57677 36.5158 9.13278 36.5158C9.13278 36.5158 8.61377 36.5627 8.4418 36.2313C8.2417 35.8436 8.57937 35.6935 8.57937 35.6935C8.57937 35.6935 8.81387 35.5872 8.70131 35.4027C8.58875 35.2183 8.33862 35.3152 8.33862 35.3152C8.07599 35.4215 7.8665 35.6279 7.7602 35.8874C7.56947 36.3345 7.88526 37.0817 8.73883 37.163C9.42356 37.2318 10.0895 36.9285 10.4866 36.3657C10.4866 36.3657 11.1119 37.1036 12.0187 37.2256C12.0187 37.2256 12.1281 37.2381 12.1594 37.1912C12.1906 37.1443 12.1969 37.0692 12.053 36.9692C11.9092 36.8691 11.0682 36.3876 11.0713 35.5403V24.7503C11.065 24.1469 11.3683 23.581 11.878 23.2527L11.8998 23.2402C12.2375 23.0557 12.594 22.915 12.966 22.815C12.966 22.815 13.1755 22.7774 13.1974 22.6774C13.2193 22.5773 13.163 22.5086 13.0223 22.5242C12.7534 22.5461 12.4908 22.5992 12.2344 22.6899C11.8623 22.8212 11.409 23.087 10.6867 23.0901C10.1271 23.0901 9.37666 22.8931 9.06713 22.8025C8.98896 22.7774 8.91079 22.7493 8.83576 22.7149C8.76384 22.6836 8.66067 22.6493 8.59813 22.6899C8.56687 22.7149 8.54498 22.7524 8.53873 22.79C8.53247 22.8556 8.56687 22.9181 8.62627 22.9463C8.84201 23.0839 8.90454 23.0682 9.10465 23.1745C9.34227 23.2965 9.55801 23.4622 9.7331 23.6654C10.0708 24.0562 10.2521 24.5596 10.2459 25.0755L10.249 25.0786Z" fill="#010101"/>
<path d="M31.6382 20.4167H37.9571V21.2047C37.4381 21.2422 37.0254 21.411 36.7158 21.708C36.4094 22.0051 36.2531 22.4334 36.2531 22.9931V37.0691C36.2531 38.3385 35.7997 39.3828 34.8961 40.1989C33.9925 41.0149 32.7982 41.4245 31.3193 41.4214C30.6689 41.4151 30.0186 41.3339 29.387 41.1775C28.7117 41.0149 28.1645 40.8055 27.7424 40.5584V36.9253H28.8962C29.0494 38.004 29.3526 38.82 29.806 39.3766C30.2594 39.9331 30.8128 40.2114 31.4662 40.2145C32.0196 40.2333 32.5543 40.005 32.9232 39.5954C33.2984 39.1827 33.486 38.6481 33.486 37.9946V23.0775C33.486 22.4803 33.3141 22.0238 32.967 21.7049C32.62 21.386 32.1791 21.2203 31.6382 21.2047V20.4167Z" fill="#010101"/>
<path d="M40.499 39.8957C40.4928 40.2365 40.3646 40.5648 40.1395 40.818C39.8987 41.1088 39.5673 41.2558 39.139 41.2558C38.77 41.2652 38.4105 41.1213 38.1509 40.8587C37.8914 40.6054 37.7476 40.2584 37.7539 39.8988C37.7476 39.5361 37.8883 39.186 38.1384 38.9233C38.3886 38.6513 38.745 38.5043 39.1139 38.5137C39.5423 38.5137 39.88 38.6513 40.127 38.9233C40.3708 39.1891 40.5022 39.5361 40.499 39.8957Z" fill="#010101"/>
<path d="M49.9884 41.4246C48.8472 41.4246 47.7153 41.2495 46.6273 40.9056C45.5486 40.5773 44.5387 40.0583 43.6414 39.3798V34.7586H44.6794C45.0827 36.4908 45.7706 37.804 46.743 38.6982C47.7153 39.5924 48.9128 40.0395 50.3355 40.0395C51.5267 40.0395 52.4803 39.7081 53.1932 39.0421C53.9061 38.3793 54.2594 37.4882 54.2594 36.372C54.2594 35.4308 54.0186 34.6711 53.5371 34.0927C53.0556 33.5142 52.2489 32.9858 51.114 32.5043L48.547 31.435C47.0087 30.8003 45.8362 29.9968 45.0264 29.0275C44.2198 28.0551 43.8133 26.9171 43.8164 25.607C43.8164 23.9905 44.3917 22.6742 45.5455 21.655C46.6992 20.6357 48.2 20.126 50.0478 20.126C51.0014 20.1229 51.955 20.248 52.8743 20.4981C53.8154 20.7639 54.719 21.1547 55.56 21.655V25.6351H54.547C54.2375 24.2688 53.7091 23.2339 52.9587 22.5335C52.2083 21.8332 51.2859 21.4799 50.1885 21.4799C49.0942 21.4799 48.2094 21.7925 47.534 22.4178C46.8618 23.0432 46.5241 23.8749 46.5241 24.9129C46.5241 25.7383 46.7398 26.4168 47.1744 26.9452C47.6059 27.4736 48.2938 27.952 49.238 28.3741L52.0926 29.6153C53.5934 30.2688 54.7096 31.0442 55.4381 31.9384C56.1697 32.8326 56.5355 33.9332 56.5355 35.2432C56.5355 37.0504 55.9196 38.5293 54.6877 39.6862C53.4558 40.843 51.8894 41.4183 49.9853 41.4183L49.9884 41.4246Z" fill="#010101"/>
<path d="M62.598 41.4245C61.3473 41.4245 60.3374 41.0774 59.5683 40.3865C58.7991 39.6955 58.4146 38.8013 58.4146 37.7038C58.4146 36.7033 58.7272 35.8685 59.3525 35.1931C59.9779 34.5209 60.9534 33.9894 62.2822 33.6048L67.0096 32.1634V30.5751C67.0096 29.7872 66.7783 29.165 66.3187 28.7148C65.8559 28.2614 65.215 28.0363 64.3895 28.0363C63.3108 28.0363 62.4698 28.3052 61.8663 28.843C61.2598 29.3839 60.8314 30.0999 60.6438 30.8909H59.315V28.0644C59.9685 27.7174 60.7877 27.4266 61.7694 27.1859C62.6261 26.9607 63.5047 26.8419 64.3895 26.8263C66.006 26.8263 67.2942 27.1952 68.254 27.9362C69.2139 28.6773 69.6954 29.6809 69.6954 30.9503V38.7669C69.6954 39.2296 69.8361 39.6017 70.1144 39.8925C70.3926 40.1832 70.7835 40.3458 71.2837 40.3833V41.1619H67.1628L67.0753 38.8825C66.7658 39.536 66.1998 40.1238 65.3744 40.6428C64.5459 41.1619 63.5829 41.4339 62.6042 41.4245H62.598ZM63.464 39.6642C64.4833 39.6642 65.3275 39.3422 65.9997 38.6981C66.6688 38.054 67.0065 37.2317 67.0096 36.2343V33.4923L63.7204 34.5303C62.8919 34.7804 62.2728 35.1369 61.8601 35.5996C61.4474 36.0592 61.241 36.6564 61.241 37.388C61.241 38.0602 61.4474 38.6105 61.8601 39.0326C62.2728 39.4547 62.8075 39.6673 63.464 39.6673V39.6642Z" fill="#010101"/>
<path d="M79.7352 41.165H72.7535V40.3865C73.3882 40.3084 73.8978 40.127 74.2824 39.8362C74.667 39.5455 74.8577 39.1046 74.8577 38.5105V28.2677H72.175V27.114H74.8577V23.8529C74.8577 22.5241 75.3142 21.4673 76.2303 20.6794C77.1433 19.8915 78.3533 19.4976 79.854 19.4976C80.4794 19.5007 81.1047 19.5726 81.7144 19.7133C82.2553 19.8227 82.7837 19.9947 83.2871 20.2198V23.2776H82.2115C81.977 22.471 81.6769 21.8394 81.3017 21.386C80.9296 20.9327 80.4231 20.7076 79.7852 20.7076C79.1318 20.7076 78.6065 20.9327 78.2126 21.386C77.8186 21.8394 77.6216 22.4397 77.6216 23.1901V27.114H80.6513V28.2677H77.6216V38.5105C77.6216 39.1077 77.8186 39.5486 78.2126 39.8362C78.6065 40.1239 79.113 40.3084 79.7258 40.3865V41.165H79.7352Z" fill="#010101"/>
<path d="M88.8244 41.165H82.074V40.3865C82.6712 40.3083 83.1495 40.1301 83.5153 39.8518C83.8812 39.5736 84.0656 39.1452 84.0656 38.5668V29.6778C84.0656 29.0806 83.9062 28.6492 83.5904 28.3803C83.2402 28.0989 82.815 27.9269 82.3679 27.8894V27.1109H86.8108L86.7545 29.3308C87.0453 28.5616 87.5018 27.9707 88.1271 27.558C88.7462 27.1453 89.4747 26.9295 90.2188 26.9389C90.6597 26.9358 91.0974 27.0264 91.5039 27.2015C91.8978 27.3766 92.1917 27.5861 92.3824 27.8362V30.8941H91.0818C91.0036 30.1249 90.7847 29.5778 90.4189 29.2495C90.0656 28.9274 89.5998 28.7523 89.1214 28.7586C88.3898 28.7586 87.827 29.0275 87.433 29.5653C87.0391 30.103 86.8421 30.7659 86.8421 31.5569V38.5699C86.8421 39.1452 87.0234 39.5736 87.3892 39.855C87.755 40.1332 88.2365 40.3115 88.8306 40.3896V41.1682L88.8244 41.165Z" fill="#010101"/>
<path d="M97.5631 41.4245C96.3124 41.4245 95.3025 41.0774 94.5334 40.3865C93.7642 39.6955 93.3796 38.8013 93.3796 37.7038C93.3796 36.7033 93.6923 35.8685 94.3176 35.1931C94.9429 34.5209 95.9185 33.9894 97.2473 33.6048L101.978 32.1634V30.5751C101.978 29.7872 101.746 29.165 101.287 28.7148C100.824 28.2614 100.18 28.0363 99.3546 28.0363C98.2759 28.0363 97.4349 28.3052 96.8314 28.843C96.2249 29.3839 95.7965 30.0999 95.6089 30.8909H94.277V28.0644C94.9304 27.7174 95.7496 27.4266 96.7314 27.1859C97.5881 26.9607 98.4667 26.8419 99.3515 26.8263C100.968 26.8263 102.256 27.1952 103.216 27.9362C104.176 28.6773 104.657 29.6809 104.657 30.9503V38.7669C104.657 39.2296 104.798 39.6017 105.076 39.8925C105.355 40.1801 105.745 40.3458 106.246 40.3833V41.1619H102.122L102.034 38.8825C101.725 39.536 101.159 40.1238 100.333 40.6428C99.5047 41.1619 98.5479 41.4339 97.5724 41.4245H97.5631ZM98.4291 39.6642C99.4484 39.6642 100.296 39.3422 100.968 38.6981C101.64 38.054 101.978 37.2317 101.978 36.2343V33.4923L98.6886 34.5303C97.8601 34.7804 97.241 35.1369 96.8283 35.5996C96.4156 36.0592 96.2092 36.6564 96.2092 37.388C96.2092 38.0602 96.4156 38.6105 96.8283 39.0326C97.241 39.4547 97.7757 39.6673 98.4291 39.6673V39.6642Z" fill="#010101"/>
<path d="M120.05 33.5455V32.9264L120.853 32.7888V27.139L120.05 27.0015V26.3761H123.345C123.799 26.3636 124.246 26.4543 124.655 26.645C124.999 26.8076 125.287 27.0702 125.484 27.3954C125.865 28.102 125.865 28.9525 125.484 29.656C125.287 29.9811 124.999 30.2438 124.655 30.4064C124.246 30.594 123.796 30.6815 123.345 30.669H121.823V32.7857L122.626 32.9233V33.5424H120.05V33.5455ZM121.823 29.9092H123.345C123.83 29.9092 124.196 29.7779 124.436 29.5184C124.68 29.2495 124.812 28.8962 124.799 28.5304C124.812 28.1646 124.68 27.8081 124.436 27.5361C124.196 27.2704 123.833 27.1359 123.345 27.1359H121.823V29.9092Z" fill="#010101"/>
<path d="M126.397 33.5455V32.9264L127.2 32.7889V28.9838L126.397 28.8462V28.2209H128.067L128.154 28.8993L128.163 28.9931C128.298 28.7399 128.489 28.521 128.723 28.3522C128.945 28.1959 129.214 28.1146 129.483 28.1208C129.589 28.1208 129.692 28.1302 129.796 28.149C129.874 28.1615 129.949 28.1771 130.024 28.199L129.896 29.0995L129.22 29.0588C128.992 29.0338 128.761 29.0963 128.573 29.2339C128.395 29.3746 128.254 29.5591 128.17 29.7685V32.7889L128.973 32.9264V33.5455H126.394H126.397Z" fill="#010101"/>
<path d="M132.922 33.6487C132.022 33.68 131.19 33.161 130.824 32.3387C130.624 31.9009 130.524 31.4226 130.533 30.9411V30.8316C130.524 30.3501 130.624 29.8718 130.824 29.434C131.002 29.0432 131.29 28.7087 131.65 28.4742C132.431 28.0083 133.404 28.0083 134.185 28.4742C134.545 28.7118 134.832 29.0432 135.011 29.434C135.211 29.8749 135.311 30.3533 135.301 30.8379V30.9473C135.311 31.4319 135.211 31.9134 135.011 32.3543C134.645 33.1735 133.819 33.6894 132.922 33.6581V33.6518V33.6487ZM132.922 32.8921C133.203 32.9015 133.479 32.8108 133.697 32.6388C133.916 32.4543 134.079 32.2167 134.17 31.9447C134.282 31.6227 134.335 31.2819 134.329 30.9411V30.8316C134.335 30.4908 134.279 30.15 134.17 29.828C134.079 29.556 133.913 29.3152 133.694 29.1339C133.228 28.7962 132.597 28.7962 132.134 29.1339C131.915 29.3183 131.75 29.556 131.662 29.828C131.553 30.15 131.499 30.4908 131.506 30.8316V30.9411C131.499 31.2819 131.553 31.6227 131.662 31.9447C131.753 32.2167 131.915 32.4575 132.137 32.6388C132.362 32.8139 132.641 32.9015 132.922 32.8921Z" fill="#010101"/>
<path d="M135.905 35.5965V34.9712L136.655 34.8367V28.9805L135.852 28.843V28.2177H137.487L137.575 28.868C137.743 28.6335 137.965 28.4428 138.222 28.3114C138.497 28.1801 138.8 28.1145 139.107 28.1207C139.513 28.1082 139.91 28.2333 140.238 28.4772C140.567 28.7367 140.814 29.0837 140.951 29.4777C141.123 29.9592 141.208 30.4688 141.198 30.9816V31.0848C141.208 31.5444 141.123 32.004 140.951 32.4292C140.804 32.7888 140.557 33.1014 140.238 33.3297C139.91 33.5517 139.519 33.6642 139.125 33.6517C138.828 33.658 138.534 33.6017 138.259 33.486C138.012 33.3766 137.793 33.2077 137.628 32.9951V34.8305L138.475 34.968V35.5934H135.905V35.5965ZM138.825 32.892C139.285 32.892 139.635 32.7231 139.873 32.3886C140.113 32.054 140.229 31.6194 140.226 31.0816V30.9785C140.232 30.6126 140.179 30.25 140.066 29.9029C139.979 29.6215 139.816 29.3682 139.598 29.1713C139.379 28.9899 139.1 28.8961 138.816 28.9055C138.566 28.8993 138.319 28.9649 138.106 29.0931C137.906 29.2213 137.74 29.3964 137.628 29.6059V32.201C137.856 32.6481 138.325 32.917 138.825 32.892Z" fill="#010101"/>
<path d="M144.575 33.6487C144.122 33.6581 143.678 33.5424 143.29 33.311C142.924 33.0859 142.633 32.7607 142.446 32.373C142.239 31.9384 142.139 31.4632 142.149 30.9848V30.769C142.143 30.2969 142.249 29.8311 142.461 29.4121C142.655 29.0306 142.94 28.7055 143.293 28.4679C143.628 28.2396 144.025 28.1177 144.428 28.1177C144.906 28.1177 145.31 28.2146 145.632 28.4116C145.954 28.6086 146.21 28.8962 146.363 29.2433C146.535 29.6403 146.62 30.0687 146.61 30.5033V31.1099H143.152L143.137 31.1349C143.137 31.4475 143.199 31.7539 143.318 32.0447C143.418 32.2948 143.59 32.5106 143.809 32.6669C144.034 32.8232 144.303 32.9014 144.578 32.8952C144.872 32.9014 145.166 32.8545 145.441 32.7545C145.679 32.6669 145.898 32.5356 146.085 32.3668L146.464 32.9983C146.245 33.2016 145.985 33.3579 145.707 33.4642C145.347 33.5986 144.963 33.6643 144.578 33.6549L144.575 33.6487ZM143.174 30.347H145.632V30.2188C145.635 29.9843 145.591 29.7498 145.497 29.5309C145.413 29.3339 145.272 29.1682 145.094 29.0525C144.891 28.9306 144.659 28.8681 144.422 28.8774C144.209 28.8774 144.003 28.9431 143.831 29.0682C143.646 29.2026 143.496 29.3808 143.393 29.5841C143.274 29.8154 143.196 30.0656 143.168 30.3219L143.177 30.347H143.174Z" fill="#010101"/>
<path d="M147.352 33.5455V32.9264L148.155 32.7889V28.9838L147.352 28.8462V28.2209H149.021L149.109 28.8993L149.118 28.9931C149.253 28.7399 149.443 28.521 149.678 28.3522C149.9 28.1959 150.169 28.1177 150.438 28.1208C150.544 28.1208 150.647 28.1302 150.75 28.149C150.828 28.1615 150.903 28.1771 150.978 28.199L150.85 29.0994L150.175 29.0588C149.947 29.0338 149.715 29.0963 149.531 29.2339C149.353 29.3746 149.212 29.5591 149.127 29.7685V32.7889L149.931 32.9264V33.5455H147.352Z" fill="#010101"/>
<path d="M153.605 33.6298C153.211 33.6298 152.898 33.5142 152.667 33.2797C152.435 33.0452 152.316 32.6762 152.316 32.1697V28.9368H151.475V28.2177H152.316V26.9326H153.289V28.2177H154.446V28.9368H153.289V32.1697C153.289 32.4261 153.339 32.6137 153.442 32.7356C153.542 32.8576 153.695 32.9232 153.852 32.917C153.98 32.917 154.108 32.9045 154.236 32.8857C154.377 32.8638 154.486 32.8451 154.568 32.8294L154.699 33.4641C154.527 33.5142 154.352 33.5517 154.174 33.5767C153.986 33.608 153.795 33.6267 153.605 33.6298Z" fill="#010101"/>
<path d="M155.287 33.5455V32.9264L156.09 32.7889V28.9838L155.287 28.8462V28.2209H157.06V32.792L157.863 32.9296V33.5486H155.287V33.5455ZM156.044 26.9046V25.8634H157.063V26.9046H156.044Z" fill="#010101"/>
<path d="M160.962 33.6487C160.511 33.6581 160.064 33.5424 159.676 33.311C159.311 33.0859 159.017 32.7607 158.832 32.373C158.626 31.9384 158.526 31.4632 158.535 30.9848V30.769C158.526 30.2969 158.635 29.8311 158.848 29.4121C159.039 29.0306 159.326 28.7055 159.68 28.4679C160.014 28.2396 160.411 28.1177 160.815 28.1177C161.296 28.1177 161.696 28.2146 162.018 28.4116C162.34 28.6086 162.597 28.8962 162.75 29.2433C162.922 29.6403 163.006 30.0687 162.997 30.5033V31.1099H159.539L159.523 31.1349C159.523 31.4475 159.586 31.7539 159.705 32.0447C159.805 32.2948 159.977 32.5106 160.196 32.6669C160.421 32.8232 160.69 32.9014 160.965 32.8952C161.259 32.9014 161.552 32.8545 161.828 32.7545C162.065 32.6669 162.284 32.5356 162.472 32.3668L162.85 32.9983C162.631 33.2016 162.375 33.3579 162.093 33.4642C161.731 33.5986 161.349 33.6643 160.962 33.6549V33.6487ZM159.564 30.347H162.021V30.2188C162.025 29.9843 161.978 29.7498 161.887 29.5309C161.803 29.3371 161.662 29.1682 161.484 29.0525C161.28 28.9306 161.049 28.8681 160.811 28.8774C160.599 28.8774 160.392 28.9431 160.221 29.0682C160.036 29.2026 159.886 29.3777 159.783 29.5841C159.664 29.8154 159.586 30.0656 159.555 30.3219L159.564 30.347Z" fill="#010101"/>
<path d="M165.933 33.6486C165.595 33.6486 165.258 33.6142 164.929 33.5392C164.589 33.4579 164.254 33.3453 163.935 33.2046L163.926 31.9384H164.661L164.842 32.7012C165.014 32.7732 165.192 32.8294 165.377 32.867C165.561 32.9045 165.749 32.9201 165.936 32.9201C166.33 32.9201 166.615 32.8451 166.784 32.6919C166.949 32.5512 167.043 32.3479 167.04 32.1322C167.04 31.9227 166.943 31.7257 166.777 31.5975C166.602 31.4506 166.29 31.3287 165.839 31.2255C165.198 31.0785 164.726 30.8784 164.42 30.6314C164.12 30.3907 163.951 30.0217 163.963 29.6403C163.96 29.362 164.048 29.09 164.213 28.8649C164.395 28.6241 164.636 28.4365 164.914 28.3208C165.242 28.1802 165.599 28.1114 165.958 28.1176C166.308 28.1114 166.658 28.1583 166.996 28.2552C167.265 28.3365 167.518 28.4615 167.747 28.6241L167.797 29.8404H167.068L166.909 29.1306C166.787 29.0431 166.646 28.9743 166.499 28.9337C166.321 28.8836 166.139 28.8618 165.955 28.8649C165.692 28.8524 165.436 28.9274 165.22 29.0775C165.042 29.1963 164.936 29.3964 164.936 29.609C164.933 29.7216 164.961 29.8341 165.017 29.9342C165.095 30.0467 165.205 30.1312 165.33 30.1843C165.549 30.2781 165.777 30.3532 166.008 30.4032C166.752 30.5783 167.268 30.8003 167.562 31.0691C167.847 31.3224 168.006 31.6851 168 32.0634C168.009 32.4949 167.825 32.9107 167.5 33.1953C167.171 33.4985 166.649 33.6517 165.933 33.6517V33.6486Z" fill="#010101"/>
<path d="M2.16 7.356H6.6V8.112H2.16V7.356ZM2.256 11.232H7.308V12H1.368V3.6H7.128V4.368H2.256V11.232ZM10.8136 12.06C10.2936 12.06 9.80159 11.988 9.33759 11.844C8.87359 11.692 8.50959 11.504 8.24559 11.28L8.62959 10.608C8.88559 10.8 9.21359 10.968 9.61359 11.112C10.0136 11.248 10.4336 11.316 10.8736 11.316C11.4736 11.316 11.9056 11.224 12.1696 11.04C12.4336 10.848 12.5656 10.596 12.5656 10.284C12.5656 10.052 12.4896 9.872 12.3376 9.744C12.1936 9.608 12.0016 9.508 11.7616 9.444C11.5216 9.372 11.2536 9.312 10.9576 9.264C10.6616 9.216 10.3656 9.16 10.0696 9.096C9.78159 9.032 9.51759 8.94 9.27759 8.82C9.03759 8.692 8.84159 8.52 8.68959 8.304C8.54559 8.088 8.47359 7.8 8.47359 7.44C8.47359 7.096 8.56959 6.788 8.76159 6.516C8.95359 6.244 9.23359 6.032 9.60159 5.88C9.97759 5.72 10.4336 5.64 10.9696 5.64C11.3776 5.64 11.7856 5.696 12.1936 5.808C12.6016 5.912 12.9376 6.052 13.2016 6.228L12.8296 6.912C12.5496 6.72 12.2496 6.584 11.9296 6.504C11.6096 6.416 11.2896 6.372 10.9696 6.372C10.4016 6.372 9.98159 6.472 9.70959 6.672C9.44559 6.864 9.31359 7.112 9.31359 7.416C9.31359 7.656 9.38559 7.844 9.52959 7.98C9.68159 8.116 9.87759 8.224 10.1176 8.304C10.3656 8.376 10.6336 8.436 10.9216 8.484C11.2176 8.532 11.5096 8.592 11.7976 8.664C12.0936 8.728 12.3616 8.82 12.6016 8.94C12.8496 9.052 13.0456 9.216 13.1896 9.432C13.3416 9.64 13.4176 9.916 13.4176 10.26C13.4176 10.628 13.3136 10.948 13.1056 11.22C12.9056 11.484 12.6096 11.692 12.2176 11.844C11.8336 11.988 11.3656 12.06 10.8136 12.06ZM16.973 12.06C16.381 12.06 15.925 11.9 15.605 11.58C15.285 11.26 15.125 10.808 15.125 10.224V4.308H15.977V10.176C15.977 10.544 16.069 10.828 16.253 11.028C16.445 11.228 16.717 11.328 17.069 11.328C17.445 11.328 17.757 11.22 18.005 11.004L18.305 11.616C18.137 11.768 17.933 11.88 17.693 11.952C17.461 12.024 17.221 12.06 16.973 12.06ZM13.997 6.408V5.7H17.897V6.408H13.997ZM19.856 12V5.7H20.672V7.416L20.588 7.116C20.764 6.636 21.06 6.272 21.476 6.024C21.892 5.768 22.408 5.64 23.024 5.64V6.468C22.992 6.468 22.96 6.468 22.928 6.468C22.896 6.46 22.864 6.456 22.832 6.456C22.168 6.456 21.648 6.66 21.272 7.068C20.896 7.468 20.708 8.04 20.708 8.784V12H19.856ZM27.2764 12.06C26.7404 12.06 26.2724 11.96 25.8724 11.76C25.4724 11.56 25.1604 11.26 24.9364 10.86C24.7204 10.46 24.6124 9.96 24.6124 9.36V5.7H25.4644V9.264C25.4644 9.936 25.6284 10.444 25.9564 10.788C26.2924 11.124 26.7604 11.292 27.3604 11.292C27.8004 11.292 28.1804 11.204 28.5004 11.028C28.8284 10.844 29.0764 10.58 29.2444 10.236C29.4204 9.892 29.5084 9.48 29.5084 9V5.7H30.3604V12H29.5444V10.272L29.6764 10.584C29.4764 11.048 29.1644 11.412 28.7404 11.676C28.3244 11.932 27.8364 12.06 27.2764 12.06ZM34.7269 12.06C34.1349 12.06 33.6789 11.9 33.3589 11.58C33.0389 11.26 32.8789 10.808 32.8789 10.224V4.308H33.7309V10.176C33.7309 10.544 33.8229 10.828 34.0069 11.028C34.1989 11.228 34.4709 11.328 34.8229 11.328C35.1989 11.328 35.5109 11.22 35.7589 11.004L36.0589 11.616C35.8909 11.768 35.6869 11.88 35.4469 11.952C35.2149 12.024 34.9749 12.06 34.7269 12.06ZM31.7509 6.408V5.7H35.6509V6.408H31.7509ZM40.2139 12.06C39.6779 12.06 39.2099 11.96 38.8099 11.76C38.4099 11.56 38.0979 11.26 37.8739 10.86C37.6579 10.46 37.5499 9.96 37.5499 9.36V5.7H38.4019V9.264C38.4019 9.936 38.5659 10.444 38.8939 10.788C39.2299 11.124 39.6979 11.292 40.2979 11.292C40.7379 11.292 41.1179 11.204 41.4379 11.028C41.7659 10.844 42.0139 10.58 42.1819 10.236C42.3579 9.892 42.4459 9.48 42.4459 9V5.7H43.2979V12H42.4819V10.272L42.6139 10.584C42.4139 11.048 42.1019 11.412 41.6779 11.676C41.2619 11.932 40.7739 12.06 40.2139 12.06ZM45.6724 12V5.7H46.4884V7.416L46.4044 7.116C46.5804 6.636 46.8764 6.272 47.2924 6.024C47.7084 5.768 48.2244 5.64 48.8404 5.64V6.468C48.8084 6.468 48.7764 6.468 48.7444 6.468C48.7124 6.46 48.6804 6.456 48.6484 6.456C47.9844 6.456 47.4644 6.66 47.0884 7.068C46.7124 7.468 46.5244 8.04 46.5244 8.784V12H45.6724ZM53.8743 12V10.608L53.8383 10.38V8.052C53.8383 7.516 53.6863 7.104 53.3823 6.816C53.0863 6.528 52.6423 6.384 52.0503 6.384C51.6423 6.384 51.2543 6.452 50.8863 6.588C50.5183 6.724 50.2063 6.904 49.9503 7.128L49.5663 6.492C49.8863 6.22 50.2703 6.012 50.7183 5.868C51.1663 5.716 51.6383 5.64 52.1343 5.64C52.9503 5.64 53.5783 5.844 54.0183 6.252C54.4663 6.652 54.6903 7.264 54.6903 8.088V12H53.8743ZM51.7023 12.06C51.2303 12.06 50.8183 11.984 50.4663 11.832C50.1223 11.672 49.8583 11.456 49.6743 11.184C49.4903 10.904 49.3983 10.584 49.3983 10.224C49.3983 9.896 49.4743 9.6 49.6263 9.336C49.7863 9.064 50.0423 8.848 50.3943 8.688C50.7543 8.52 51.2343 8.436 51.8343 8.436H54.0063V9.072H51.8583C51.2503 9.072 50.8263 9.18 50.5863 9.396C50.3543 9.612 50.2383 9.88 50.2383 10.2C50.2383 10.56 50.3783 10.848 50.6583 11.064C50.9383 11.28 51.3303 11.388 51.8343 11.388C52.3143 11.388 52.7263 11.28 53.0703 11.064C53.4223 10.84 53.6783 10.52 53.8383 10.104L54.0303 10.692C53.8703 11.108 53.5903 11.44 53.1903 11.688C52.7983 11.936 52.3023 12.06 51.7023 12.06ZM59.6204 12.06C58.9964 12.06 58.4364 11.924 57.9404 11.652C57.4524 11.372 57.0684 10.992 56.7884 10.512C56.5084 10.024 56.3684 9.468 56.3684 8.844C56.3684 8.212 56.5084 7.656 56.7884 7.176C57.0684 6.696 57.4524 6.32 57.9404 6.048C58.4364 5.776 58.9964 5.64 59.6204 5.64C60.1564 5.64 60.6404 5.744 61.0724 5.952C61.5044 6.16 61.8444 6.472 62.0924 6.888L61.4564 7.32C61.2404 7 60.9724 6.764 60.6524 6.612C60.3324 6.46 59.9844 6.384 59.6084 6.384C59.1604 6.384 58.7564 6.488 58.3964 6.696C58.0364 6.896 57.7524 7.18 57.5444 7.548C57.3364 7.916 57.2324 8.348 57.2324 8.844C57.2324 9.34 57.3364 9.772 57.5444 10.14C57.7524 10.508 58.0364 10.796 58.3964 11.004C58.7564 11.204 59.1604 11.304 59.6084 11.304C59.9844 11.304 60.3324 11.228 60.6524 11.076C60.9724 10.924 61.2404 10.692 61.4564 10.38L62.0924 10.812C61.8444 11.22 61.5044 11.532 61.0724 11.748C60.6404 11.956 60.1564 12.06 59.6204 12.06ZM59.1164 14.64C58.9164 14.64 58.7324 14.616 58.5644 14.568C58.4044 14.52 58.2524 14.452 58.1084 14.364L58.3124 13.908C58.4324 13.98 58.5564 14.036 58.6844 14.076C58.8204 14.116 58.9604 14.136 59.1044 14.136C59.3444 14.136 59.5284 14.084 59.6564 13.98C59.7844 13.884 59.8484 13.748 59.8484 13.572C59.8484 13.412 59.7844 13.28 59.6564 13.176C59.5364 13.072 59.3524 13.02 59.1044 13.02H58.8284L59.1164 11.928H59.6324L59.4524 12.624C59.7804 12.648 60.0324 12.748 60.2084 12.924C60.3844 13.108 60.4724 13.332 60.4724 13.596C60.4724 13.916 60.3444 14.168 60.0884 14.352C59.8404 14.544 59.5164 14.64 59.1164 14.64ZM67.7141 12V10.608L67.6781 10.38V8.052C67.6781 7.516 67.5261 7.104 67.2221 6.816C66.9261 6.528 66.4821 6.384 65.8901 6.384C65.4821 6.384 65.0941 6.452 64.7261 6.588C64.3581 6.724 64.0461 6.904 63.7901 7.128L63.4061 6.492C63.7261 6.22 64.1101 6.012 64.5581 5.868C65.0061 5.716 65.4781 5.64 65.9741 5.64C66.7901 5.64 67.4181 5.844 67.8581 6.252C68.3061 6.652 68.5301 7.264 68.5301 8.088V12H67.7141ZM65.5421 12.06C65.0701 12.06 64.6581 11.984 64.3061 11.832C63.9621 11.672 63.6981 11.456 63.5141 11.184C63.3301 10.904 63.2381 10.584 63.2381 10.224C63.2381 9.896 63.3141 9.6 63.4661 9.336C63.6261 9.064 63.8821 8.848 64.2341 8.688C64.5941 8.52 65.0741 8.436 65.6741 8.436H67.8461V9.072H65.6981C65.0901 9.072 64.6661 9.18 64.4261 9.396C64.1941 9.612 64.0781 9.88 64.0781 10.2C64.0781 10.56 64.2181 10.848 64.4981 11.064C64.7781 11.28 65.1701 11.388 65.6741 11.388C66.1541 11.388 66.5661 11.28 66.9101 11.064C67.2621 10.84 67.5181 10.52 67.6781 10.104L67.8701 10.692C67.7101 11.108 67.4301 11.44 67.0301 11.688C66.6381 11.936 66.1421 12.06 65.5421 12.06ZM66.8141 4.644C66.6301 4.644 66.4661 4.604 66.3221 4.524C66.1781 4.444 66.0461 4.352 65.9261 4.248C65.8141 4.136 65.7021 4.04 65.5901 3.96C65.4781 3.872 65.3621 3.828 65.2421 3.828C65.0581 3.828 64.9101 3.896 64.7981 4.032C64.6941 4.168 64.6341 4.356 64.6181 4.596H64.1021C64.1181 4.196 64.2221 3.876 64.4141 3.636C64.6141 3.396 64.8701 3.276 65.1821 3.276C65.3661 3.276 65.5301 3.32 65.6741 3.408C65.8261 3.488 65.9581 3.584 66.0701 3.696C66.1901 3.8 66.3021 3.892 66.4061 3.972C66.5181 4.052 66.6341 4.092 66.7541 4.092C66.9381 4.092 67.0861 4.028 67.1981 3.9C67.3101 3.764 67.3701 3.58 67.3781 3.348H67.8941C67.8861 3.732 67.7821 4.044 67.5821 4.284C67.3821 4.524 67.1261 4.644 66.8141 4.644ZM73.4123 12.06C72.8043 12.06 72.2563 11.924 71.7683 11.652C71.2883 11.372 70.9083 10.992 70.6283 10.512C70.3483 10.024 70.2083 9.468 70.2083 8.844C70.2083 8.212 70.3483 7.656 70.6283 7.176C70.9083 6.696 71.2883 6.32 71.7683 6.048C72.2483 5.776 72.7963 5.64 73.4123 5.64C74.0363 5.64 74.5883 5.776 75.0683 6.048C75.5563 6.32 75.9363 6.696 76.2083 7.176C76.4883 7.656 76.6283 8.212 76.6283 8.844C76.6283 9.468 76.4883 10.024 76.2083 10.512C75.9363 10.992 75.5563 11.372 75.0683 11.652C74.5803 11.924 74.0283 12.06 73.4123 12.06ZM73.4123 11.304C73.8683 11.304 74.2723 11.204 74.6243 11.004C74.9763 10.796 75.2523 10.508 75.4523 10.14C75.6603 9.764 75.7643 9.332 75.7643 8.844C75.7643 8.348 75.6603 7.916 75.4523 7.548C75.2523 7.18 74.9763 6.896 74.6243 6.696C74.2723 6.488 73.8723 6.384 73.4243 6.384C72.9763 6.384 72.5763 6.488 72.2243 6.696C71.8723 6.896 71.5923 7.18 71.3843 7.548C71.1763 7.916 71.0723 8.348 71.0723 8.844C71.0723 9.332 71.1763 9.764 71.3843 10.14C71.5923 10.508 71.8723 10.796 72.2243 11.004C72.5763 11.204 72.9723 11.304 73.4123 11.304ZM78.4517 6.948C78.2757 6.948 78.1237 6.884 77.9957 6.756C77.8757 6.628 77.8157 6.472 77.8157 6.288C77.8157 6.096 77.8757 5.94 77.9957 5.82C78.1237 5.7 78.2757 5.64 78.4517 5.64C78.6277 5.64 78.7757 5.7 78.8957 5.82C79.0237 5.94 79.0877 6.096 79.0877 6.288C79.0877 6.472 79.0237 6.628 78.8957 6.756C78.7757 6.884 78.6277 6.948 78.4517 6.948ZM78.4517 12.06C78.2757 12.06 78.1237 11.996 77.9957 11.868C77.8757 11.74 77.8157 11.584 77.8157 11.4C77.8157 11.208 77.8757 11.052 77.9957 10.932C78.1237 10.812 78.2757 10.752 78.4517 10.752C78.6277 10.752 78.7757 10.812 78.8957 10.932C79.0237 11.052 79.0877 11.208 79.0877 11.4C79.0877 11.584 79.0237 11.74 78.8957 11.868C78.7757 11.996 78.6277 12.06 78.4517 12.06Z" fill="#010101"/>
</svg>
