<svg width="255" height="114" viewBox="0 0 255 114" fill="none" xmlns="http://www.w3.org/2000/svg">
<path d="M92.4634 107.651C92.4634 109.601 91.89 111.121 90.6903 112.213C89.5245 113.269 87.9127 113.822 85.8529 113.822H77.2698V92.535H85.5302C87.6261 92.535 89.2399 93.0544 90.4397 94.091C91.6225 95.1636 92.2128 96.6495 92.2128 98.5277C92.2128 99.4943 91.9622 100.389 91.4781 101.175C91.047 101.909 90.4737 102.445 89.7389 102.875C90.599 103.306 91.2615 103.912 91.7287 104.645C92.2128 105.504 92.4804 106.471 92.4804 107.651H92.4634ZM85.2074 101.103C86.0674 101.103 86.7299 100.889 87.1971 100.495C87.6282 100.101 87.8596 99.5282 87.8596 98.7587C87.8596 97.9363 87.6091 97.3279 87.1971 96.9336C86.7491 96.5033 86.0674 96.2892 85.2074 96.2892H81.5529V101.101H85.2074V101.103ZM88.1633 107.365C88.1633 106.579 87.9127 105.97 87.5008 105.54C87.0697 105.076 86.3711 104.879 85.458 104.879H81.5507V110.049H85.458C86.3711 110.049 87.0357 109.799 87.5008 109.351C87.9488 108.868 88.1633 108.224 88.1633 107.384V107.367V107.365Z" fill="#5E874B"/>
<path d="M109.22 103.267V113.822H105.26V112.658C104.795 113.088 104.346 113.409 103.862 113.625C103.253 113.875 102.518 113.983 101.675 113.983C100.027 113.983 98.7192 113.536 97.804 112.641C96.8548 111.73 96.4067 110.477 96.4067 108.902C96.4067 107.435 96.8909 106.29 97.8932 105.432C98.8615 104.573 100.206 104.162 101.979 104.162H105.168V103.07C105.168 101.461 104.417 100.692 102.786 100.692C102.123 100.692 101.603 100.836 101.208 101.175C100.813 101.514 100.635 101.945 100.635 102.481V102.731H96.8357V102.462C96.8357 100.942 97.392 99.7253 98.4835 98.8477C99.541 97.9723 101.01 97.5059 102.839 97.5059C104.918 97.5059 106.459 97.9892 107.551 98.9728C108.681 99.9394 109.218 101.37 109.218 103.265L109.22 103.267ZM105.168 108.043V107.077H102.588C101.102 107.077 100.367 107.649 100.367 108.847C100.367 110.044 101.066 110.672 102.535 110.672C103.503 110.672 104.183 110.458 104.578 110.027C104.973 109.597 105.187 108.972 105.187 108.06L105.17 108.043H105.168Z" fill="#5E874B"/>
<path d="M122.785 97.525V101.389C121.997 101.12 121.298 100.995 120.742 100.995C119.865 100.995 119.164 101.264 118.646 101.818C118.126 102.373 117.858 103.159 117.858 104.196V113.837H113.773V97.72H117.769V99.0258C118.128 98.5064 118.593 98.1673 119.113 97.8981C119.776 97.5589 120.511 97.3787 121.371 97.3787C121.855 97.3787 122.339 97.4317 122.804 97.5229H122.787L122.785 97.525Z" fill="#5E874B"/>
<path d="M130.508 97.7052V107.096C130.508 108.152 130.652 109.01 130.992 109.565C131.296 110.085 131.905 110.352 132.857 110.352C133.808 110.352 134.415 110.102 134.721 109.601C135.061 109.082 135.205 108.224 135.205 107.115V97.7243H139.291V107.295C139.291 109.548 138.734 111.212 137.713 112.304C136.619 113.468 135.008 114.004 132.876 114.004C128.612 114.004 126.444 111.751 126.444 107.278V97.7073H130.529H130.512L130.508 97.7052Z" fill="#5E874B"/>
<path d="M147.46 107.043V107.312C147.46 108.476 147.71 109.262 148.195 109.71C148.715 110.193 149.413 110.443 150.363 110.443C151.061 110.443 151.635 110.299 152.03 109.996C152.425 109.726 152.639 109.334 152.675 108.779L152.728 108.565H156.599V108.868C156.599 110.388 156.026 111.658 154.86 112.607C153.731 113.519 152.172 114.002 150.201 114.002C148.231 114.002 146.492 113.394 145.273 112.213C144.018 111.032 143.408 109.171 143.408 106.704V104.789C143.408 102.392 143.982 100.567 145.181 99.3522C146.4 98.1355 148.012 97.5271 150.091 97.5271C152.17 97.5271 153.745 98.1355 154.928 99.3883C156.147 100.605 156.72 102.43 156.72 104.809V107.062H147.456V107.045L147.46 107.043ZM148.122 101.748C147.691 102.231 147.46 103.017 147.46 104.145H152.639V103.895C152.639 101.981 151.815 101.033 150.076 101.033C149.216 101.033 148.59 101.283 148.122 101.731V101.748Z" fill="#5E874B"/>
<path d="M169.967 97.525V101.389C169.179 101.12 168.48 100.995 167.924 100.995C167.047 100.995 166.346 101.264 165.828 101.818C165.308 102.373 165.04 103.159 165.04 104.196V113.837H160.955V97.72H164.951V99.0258C165.31 98.5064 165.775 98.1673 166.295 97.8981C166.958 97.5589 167.692 97.3787 168.552 97.3787C169.037 97.3787 169.521 97.4317 169.986 97.5229H169.969L169.967 97.525Z" fill="#5E874B"/>
<path d="M177.743 95.844H173.604V92.535H177.743V95.844ZM177.707 113.822H173.657V97.7052H177.707V113.822Z" fill="#5E874B"/>
<path d="M78.7923 30.6076C78.7923 33.8996 76.087 36.5642 72.7531 36.5642C69.4192 36.5642 66.7139 33.8996 66.7139 30.6076C66.7139 27.3156 69.4192 24.651 72.7531 24.651C76.087 24.651 78.7923 27.3156 78.7923 30.6076Z" fill="#FCC125"/>
<path d="M77.2146 74.1989H78.8454V74.8263H66.5886V74.1989H68.2004V40.7677H66.5886V40.0703H78.8454V40.7677H77.2146V74.1989Z" fill="#324421"/>
<path d="M106.442 38.065V41.1768H105.816V39.924H96.8017V63.017C96.8017 67.1124 98.9889 70.7097 101.444 70.7097C103.414 70.7097 105.098 68.2062 105.601 64.681H106.158C105.387 70.5126 101.588 74.8051 97.2158 74.8051C92.1448 74.8051 87.9148 69.671 87.9148 63.2141H87.8426V26.7602H86.3562V26.2048H98.3263V26.7602H96.7847V39.3898H105.799V38.0671H106.444L106.442 38.065Z" fill="#324421"/>
<path d="M134.054 38.065V41.1768H133.428V39.924H124.413V63.017C124.413 67.1124 126.601 70.7097 129.055 70.7097C131.026 70.7097 132.71 68.2062 133.213 64.681H133.77C132.999 70.5126 129.2 74.8051 124.828 74.8051C119.757 74.8051 115.527 69.671 115.527 63.2141H115.454V26.7602H113.968V26.2048H125.938V26.7602H124.397V39.3898H133.411V38.0671H134.056L134.054 38.065Z" fill="#324421"/>
<path d="M170.073 46.4551C166.758 42.9129 162.333 40.8377 157.26 40.8377C150.772 40.8377 149.375 52.0704 149.375 57.6158C149.375 62.0525 149.447 74.1989 157.26 74.1989C162.331 74.1989 166.775 72.0515 170.073 68.5115V46.4551ZM179.159 40.7677V74.1289H180.701V74.7543H168.516V74.1289H170.058V69.406C166.743 72.8041 162.318 74.8073 157.245 74.8073C156.115 74.8073 155.058 74.6631 153.858 74.4681C145.275 72.4649 139.7 65.5247 139.7 57.5458C139.7 49.567 145.542 42.3597 153.713 40.6956C155.325 40.3565 156.187 40.2123 157.226 40.2123C162.224 40.2123 166.741 42.2155 170.039 45.5606V40.7656H168.497V40.1403H180.682V40.7656H179.14H179.157L179.159 40.7677Z" fill="#324421"/>
<path d="M11.3798 0.9836H9.10343V0.0890503H0V0.930605H2.1511L29.6206 75.971L33.7954 62.2157L11.3798 0.9836Z" fill="#8BC26F"/>
<path d="M9.10352 0V0.983581H11.3799L38.8494 76.0601L66.6057 0.983581H68.7759V0.089031H63.5075V0.983581H65.6034L44.3153 58.0461L25.482 0.983581H27.8476V0H9.10352Z" fill="#5E874B"/>
<path d="M196.666 8.37104C188.046 32.4137 187.401 49.9782 194.712 62.0885C199.997 70.8348 209.351 76.3102 222.504 78.3664C222.683 78.4024 222.844 78.4194 223.024 78.4385L225.246 78.7607L226.787 77.1517C226.913 77.0267 227.021 76.9016 227.146 76.7766C229.476 74.3261 231.465 71.8565 233.113 69.3531C234.942 66.5804 236.375 63.7717 237.36 60.9629C238.972 56.3842 239.511 51.7694 238.919 47.1165C238.256 41.9654 236.286 36.8843 232.969 31.8392C230.425 33.8424 228.31 35.8816 226.643 37.9569C228.703 41.41 229.941 44.825 230.37 48.1891C231.015 53.3042 229.796 58.3853 226.679 63.5194C225.532 65.3975 224.152 67.2757 222.485 69.1898C222.341 69.3509 222.215 69.512 222.073 69.6731C212.396 67.848 205.856 63.9306 202.129 57.7409C196.7 48.7614 197.094 34.6288 203.259 15.6864C211.628 21.3039 218.096 26.8662 222.63 32.3034C224.422 30.3172 226.518 28.367 228.955 26.4719C223.131 19.6207 214.817 12.8056 203.885 5.91844L198.725 2.69849L196.666 8.35196V8.36892V8.37104Z" fill="#8BC26F"/>
<path d="M247.09 15.7246C239.762 19.1777 233.723 22.7538 228.938 26.4931C226.501 28.3882 224.405 30.3384 222.612 32.3246C219.153 36.1699 216.896 40.1954 215.802 44.418C213.813 52.1446 215.911 60.2846 222.039 68.5857C222.111 68.6938 222.201 68.7998 222.29 68.9079L222.487 69.1771C224.135 67.282 225.534 65.3848 226.681 63.5067C222.362 57.2279 220.948 51.5045 222.345 46.029C223.044 43.2924 224.477 40.5918 226.645 37.9442C228.312 35.888 230.444 33.8488 232.971 31.8265C236.625 28.9287 241.178 26.1031 246.608 23.3473C249.547 38.6586 248.453 49.6793 243.365 56.1362C241.771 58.1585 239.781 59.7504 237.379 60.9311C236.375 63.7568 234.961 66.5486 233.132 69.3213C239.817 67.9074 245.049 64.8485 248.704 60.1977C255.584 51.4854 256.803 37.7661 252.467 18.2492L251.428 13.6514L247.109 15.6737L247.092 15.7267L247.09 15.7246Z" fill="#5E874B"/>
</svg>
