<svg width="30" height="30" viewBox="0 0 30 30" fill="none" xmlns="http://www.w3.org/2000/svg">
<path d="M17.5136 14.4813L13.6699 12.3902C13.5124 12.3005 12.9731 12.4141 12.9731 12.5957V16.6732C12.9731 16.8521 13.5079 16.9661 13.6655 16.8809L17.6809 14.8945C17.8438 14.8062 17.6747 14.5732 17.5136 14.4813Z" fill="#010101"/>
<path d="M15.1392 0C7.08575 0 0.557129 6.52862 0.557129 14.5821C0.557129 22.6356 7.08575 29.1642 15.1392 29.1642C23.1927 29.1642 29.7218 22.6356 29.7218 14.5821C29.7218 6.52862 23.1932 0 15.1392 0ZM22.9464 16.6657C22.9464 18.5997 21.3785 20.1672 19.4449 20.1672H10.491C8.55691 20.1672 6.98944 18.5997 6.98944 16.6657V12.4989C6.98944 10.5649 8.55736 8.99743 10.491 8.99743H19.4449C21.3789 8.99743 22.9464 10.5653 22.9464 12.4989V16.6657Z" fill="#010101"/>
</svg>
